<?xml version="1.0" encoding="UTF-8"?>
<svg id="Layer_1" xmlns="http://www.w3.org/2000/svg" version="1.1" viewBox="0 0 1080 1346.67">
  <!-- Generator: Adobe Illustrator 30.3.0, SVG Export Plug-In . SVG Version: 2.1.3 Build 182)  -->
  <defs>
    <style>
      .st0 {
        fill: #d6570f;
      }

      .st1 {
        fill: #fdfdfd;
      }
    </style>
  </defs>
  <path class="st0" d="M228.1,666.69c-20.51-39.09-39.03-77.21-54.74-118.16l-33.62-97.8c-22.64-82.18-38.53-161.2-28.34-246.32,5.12-42.77,22.04-92.48,50.49-124.63,8.41-9.51,18.27-16.52,28.64-23.8,18.12-12.71,38.56-18.23,60.71-17.73,17.25.39,33.04,2.68,49.02,10.19,26.67,12.53,49.4,31.29,68.16,54.59,20.54,25.5,37.3,53.05,52.65,82.03l6.04,13.36c9.11,20.15,17.56,39.68,24.68,60.91,13.16,39.25,21.42,78.73,30.23,119.4,7.29,33.67,9.81,66.76,14.37,100.84,1.03,7.73,1.8,14.53,2.34,22.37l3.3,47.45c.21,2.97-.6,10.09,2.89,10.82,22.13-.77,43.7-2.5,65.85,0,3.76.42,7.42-1.45,7.6-5.89l1.23-31.45c.7-17.91,1.99-34.74,4.36-52.44l7.64-56.87,8.27-41.18c7.54-37.58,15.12-73.76,27.95-109.84,5.63-15.84,10.56-30.19,17.41-45.78,18.65-42.39,40.51-82.49,70.65-118.02,13.73-16.18,29.62-29.4,46.97-41.13,39.96-27.01,90.64-26.34,130.07.31,10.77,7.28,19.88,14.64,28.21,24.28,37.26,43.13,46.7,101.3,50.09,157.03,2.71,44.54-6.14,104.42-14.83,149.31-1.88,9.72-4.51,18.13-7.09,27.68-7.84,28.97-13.68,57.21-24.07,85.59-19.83,54.18-41.73,106.23-68.65,157.15-1.4,2.65-2.96,7.66-1.04,10.28l24.75,33.88c17.72,24.26,29.79,50.57,41.59,78.09l14.16,41.29,12.55,44.52,7.12,32c5.43,24.43,5.2,48.32,6.32,73.4,1.71,38.43-.58,76.37-11.81,113.16-12.57,41.18-32.06,77.95-61.46,109.51-35.95,38.59-81.75,64.99-131.28,82.69l-41.5,12.52c-49.7,11.91-99.47,17.44-150.67,18.5-146.67,3.05-316.95-20.45-402.5-151.65-24.92-38.22-38.05-80.81-43.49-125.86-6.29-52.01.36-102.04,10.54-153.19,14.21-71.37,41.59-138.11,85.72-196.24l12.5-15.14ZM796.78,674.94c.95-5.44,4-8.38,6.25-12.64,29.34-55.54,53.92-112.3,75.63-171.36,9.54-25.96,16.77-50.36,23.63-77.05,10.49-40.84,19.34-80.95,21.96-123.28,1.2-19.41,2.16-37.28.82-56.45-2.28-32.73-7.69-64.85-22.62-94.18-7.35-14.46-16.13-27.23-28.31-37.55-30.71-26.02-68.18-21.25-99.01,4.72-46.78,39.41-72.48,92.96-95.48,148.76l-9.21,28.36c-30.96,95.32-41.86,185.61-46.98,285.26l-.8,43.14c-.04,2.4-3.15,4.11-5.89,3.4-49.28-12.62-100.26-13.22-149.52-.25-2.32.61-8.74,2.47-8.94-1.64l-4.35-89.94c-4.27-59.97-12.71-117.92-26.04-176.64-11.26-49.59-27.28-96.65-49.72-142.05-19.94-40.34-55.55-96.21-96.01-113.47-28.36-12.1-60.85-6.64-81.7,15.55-14.92,15.88-24.93,33.49-31.66,54.14-24.14,74.15-14.96,153.37,3.48,228.63,9.96,40.65,21.24,79.24,36.01,118.41,19.48,51.66,41.87,100.8,67.55,149.44,2.89,5.48,7.34,9.72,8.19,15.82-3.98,8.18-11.79,13.1-17.54,19.97-16.33,19.49-30.62,39.66-42.87,62-38.36,69.98-55.84,140.47-59.87,220.09-3.24,63.95,14.73,132.62,57.2,180.85,51.79,58.8,132.12,86.25,208.38,97.77,24.67,3.73,47.67,7.76,72.52,7.83l73.21.22c43.13-1.79,84.81-8.08,126.66-18.11,94.65-22.69,178.19-77.13,204.52-174.67,7.35-27.22,12-54.16,11.61-82.58l-2.86-37.47c-1.92-25.19-7.12-48.36-12.36-73.13-11.13-52.66-32.23-101.61-61.07-146.96-12.9-20.29-28.06-37.14-44.83-54.93Z"/>
  <path d="M796.78,674.94c16.77,17.79,31.93,34.64,44.83,54.93,28.84,45.36,49.94,94.31,61.07,146.96,5.24,24.77,10.44,47.95,12.36,73.13l2.86,37.47c.39,28.43-4.27,55.36-11.61,82.58-26.33,97.54-109.87,151.98-204.52,174.67-41.85,10.04-83.53,16.32-126.66,18.11l-73.21-.22c-24.85-.07-47.85-4.11-72.52-7.83-76.25-11.52-156.58-38.97-208.38-97.77-42.48-48.22-60.44-116.9-57.2-180.85,4.03-79.62,21.51-150.11,59.87-220.09,12.25-22.34,26.54-42.51,42.87-62,5.76-6.87,13.56-11.78,17.54-19.97-.85-6.1-5.3-10.34-8.19-15.82-25.69-48.65-48.07-97.78-67.55-149.44-14.77-39.17-26.05-77.76-36.01-118.41-18.44-75.26-27.62-154.48-3.48-228.63,6.72-20.66,16.73-38.26,31.66-54.14,20.85-22.19,53.33-27.64,81.7-15.55,40.46,17.25,76.07,73.13,96.01,113.47,22.44,45.4,38.46,92.46,49.72,142.05,13.33,58.71,21.77,116.66,26.04,176.64l4.35,89.94c.2,4.11,6.62,2.26,8.94,1.64,49.26-12.97,100.24-12.37,149.52.25,2.74.7,5.85-1.01,5.89-3.4l.8-43.14c5.12-99.65,16.02-189.93,46.98-285.26l9.21-28.36c22.99-55.8,48.69-109.36,95.48-148.76,30.83-25.97,68.3-30.73,99.01-4.72,12.19,10.32,20.96,23.09,28.31,37.55,14.92,29.33,20.34,61.45,22.62,94.18,1.34,19.17.38,37.05-.82,56.45-2.62,42.33-11.46,82.44-21.96,123.28-6.85,26.68-14.08,51.08-23.63,77.05-21.71,59.05-46.29,115.81-75.63,171.36-2.25,4.26-5.3,7.2-6.25,12.64ZM779.4,625.82c34.37-67.97,62.08-136.56,83.2-209.23l17.99-79.56c5.08-22.47,6.97-44.47,6.95-67l-.03-29.47c-1.89-30.19-6.99-60.03-20.95-87.13-10.27-19.93-30.03-38.2-50.4-27.97-30.05,15.1-54.14,49.55-70.77,79.35-25.01,44.8-42.09,92.16-54.2,142.21-7.56,31.24-14.14,60.95-18.21,92.75l-7,54.71-3.5,51.64-1.53,26.78-1.44,31.55-1.1,38.04c-2.96,14.86-18.72,18.79-31.66,14.65-47.87-15.31-97.05-16.95-146.14-6.99l-50.04,13.05c-2.48.65-4.32,2.89-6.68.95-1.37-1.13-2.45-3.07-2.51-5.55l-1.5-64.64-1.22-38.09-1.05-24.25c-5.16-56.54-12.23-111.94-24.19-167.28-5.79-26.82-13.84-50.92-22.15-76.89-9.21-28.82-22.04-55.51-36.13-82.12-5.81-10.97-12.26-20.26-19.22-30.39-12.86-18.74-27.41-35.79-46.97-47.4-23.48-13.95-45.09,5.02-56.53,28.26-20.83,42.32-21.09,84.83-19.17,131.13,1.16,27.96,5.65,53.51,12.08,80.87,15.98,67.99,38.45,132.97,67.01,196.67l17.25,38.47,31.06,60.26c5.34,10.35,8.78,20.14-.39,29.46l-23.61,24c-21.09,21.43-55.17,80.29-64.72,110.6l-15.44,48.96c-9.18,29.12-12.13,59.52-14.44,90.15l.32,46.15c1.74,18.7,4.7,36.15,10.36,54.23,13.33,42.59,41.85,77.24,79.62,101.65,69.91,45.18,168.11,56.14,251.22,56.33,63.03.14,124.92-7.23,184.55-27.01,32.85-10.9,62.22-27.5,87.65-50.18,34.64-30.9,53.92-71.94,60.12-117.36,3.84-28.16,5.38-54.87.67-83.32l-9.85-59.44c-6.38-28.53-16.14-54.92-27.35-81.95-12.98-31.31-31.03-59.17-52.85-84.92l-25.09-25.83c-8.53-8.78-8.21-19.39-2.56-30.08l20.52-38.82Z"/>
  <path d="M371.57,1029.72c-8.29,4.66-16.63,5.34-25.8,2.59-11.44-3.43-19.48-12.22-21.73-22.85-2.52-11.97,1.57-24.62,12.58-31.22l66.35-39.79c1.76-1.05,2.77-4.32,2.4-6.44l-70.33-41.76c-5.29-3.14-9.25-10.14-10.85-15.71-3.5-12.23,1.03-24.71,10.41-31.97s21.91-10.49,33.01-4.26l58.45,32.78,58.37,34.44c10.95,6.46,17.64,16.76,17.8,28.76.17,12.37-6.51,21.91-17.6,29.15-36.69,23.96-74.74,44.75-113.07,66.29Z"/>
  <path d="M751.12,953.67c-4.26,6.24-13.87,11.09-21.78,11.13l-116.78.5c-17.9.08-31.54-10.93-33.26-28.08s9.97-30.86,27.63-33.28l30.94-.81c10.82-.28,20.79-.25,31.57-.08l62.7.95c10.53.16,19.25,9.95,22.53,17.25,4.96,11.02,3.61,21.94-3.56,32.43Z"/>
  <path class="st1" d="M779.4,625.82l-20.52,38.82c-5.65,10.68-5.97,21.29,2.56,30.08l25.09,25.83c21.82,25.75,39.87,53.61,52.85,84.92,11.21,27.03,20.96,53.42,27.35,81.95l9.85,59.44c4.72,28.45,3.17,55.16-.67,83.32-6.2,45.42-25.48,86.47-60.12,117.36-25.44,22.69-54.8,39.29-87.65,50.18-59.63,19.78-121.52,27.15-184.55,27.01-83.11-.19-181.31-11.15-251.22-56.33-37.77-24.41-66.3-59.06-79.62-101.65-5.66-18.08-8.61-35.54-10.36-54.23l-.32-46.15c2.31-30.64,5.26-61.03,14.44-90.15l15.44-48.96c9.56-30.31,43.64-89.17,64.72-110.6l23.61-24c9.17-9.32,5.72-19.11.39-29.46l-31.06-60.26-17.25-38.47c-28.56-63.7-51.03-128.68-67.01-196.67-6.43-27.36-10.92-52.92-12.08-80.87-1.92-46.29-1.65-88.8,19.17-131.13,11.44-23.24,33.04-42.2,56.53-28.26,19.56,11.61,34.11,28.66,46.97,47.4,6.95,10.13,13.41,19.42,19.22,30.39,14.09,26.6,26.92,53.3,36.13,82.12,8.3,25.97,16.35,50.07,22.15,76.89,11.96,55.34,19.03,110.74,24.19,167.28l1.05,24.25,1.22,38.09,1.5,64.64c.06,2.48,1.14,4.42,2.51,5.55,2.35,1.94,4.2-.3,6.68-.95l50.04-13.05c49.09-9.97,98.26-8.33,146.14,6.99,12.94,4.14,28.7.21,31.66-14.65l1.1-38.04,1.44-31.55,1.53-26.78,3.5-51.64,7-54.71c4.07-31.8,10.65-61.51,18.21-92.75,12.11-50.04,29.19-97.41,54.2-142.21,16.63-29.8,40.73-64.24,70.77-79.35,20.37-10.24,40.14,8.04,50.4,27.97,13.96,27.1,19.07,56.94,20.95,87.13l.03,29.47c.02,22.53-1.87,44.53-6.95,67l-17.99,79.56c-21.12,72.67-48.83,141.26-83.2,209.23ZM371.57,1029.72c38.34-21.54,76.38-42.33,113.07-66.29,11.09-7.24,17.77-16.78,17.6-29.15-.17-12-6.86-22.3-17.8-28.76l-58.37-34.44-58.45-32.78c-11.1-6.23-23.86-2.83-33.01,4.26s-13.92,19.75-10.41,31.97c1.6,5.57,5.56,12.57,10.85,15.71l70.33,41.76c.36,2.12-.65,5.39-2.4,6.44l-66.35,39.79c-11.01,6.6-15.1,19.25-12.58,31.22,2.24,10.63,10.28,19.42,21.73,22.85,9.17,2.75,17.51,2.07,25.8-2.59ZM751.12,953.67c7.17-10.49,8.51-21.41,3.56-32.43-3.28-7.3-12-17.09-22.53-17.25l-62.7-.95c-10.78-.16-20.75-.2-31.57.08l-30.94.81c-17.66,2.41-29.3,16.73-27.63,33.28s15.36,28.15,33.26,28.08l116.78-.5c7.91-.03,17.52-4.89,21.78-11.13Z"/>
</svg>